#!OML:ASF F:\VICON\USERDATA\INSTALL\rory3\rory3.ASF
:FULLY-SPECIFIED
:DEGREES
105
root 0.4364085524200191 17.77875409484425 52.617398165471435 -4.9952200012250145 1.1182900332632606 -0.3287843861253905
lfemur -3.4304789187866875 -4.718939831562083 -20.803734843878186
ltibia 11.57385913395468
lfoot -11.468005291842957 -5.178087136219126
ltoes -17.116362084881466
rfemur -28.77024762822124 -7.8927581263893964 22.554571501099367
rtibia 76.74069855143458
rfoot -4.472558695094506 -10.467288168572821
rtoes -3.6374344682198902
lowerback -1.0 -0.9858947516936358 -3.431993939662262
upperback 0.46725833386213506 -0.8432396861161653 1.303740565176387
thorax -6.428071613592422 -0.21705126449649173 3.3132539511764194
lowerneck -16.697522884734116 -3.2782080623495053 -3.174263347353434
upperneck 21.053491729850492 -4.249638449423863 2.470374167108747
head 9.456122222034546 -2.0120090033635174 0.7239224691283188
lclavicle -1.711708258299451e-14 -1.0612847289986023e-14
lhumerus -29.925148055209615 4.131641014321229 80.24168379812501
lradius 25.612525433481192
lwrist 7.135310239753707
lhand -24.119878739219118 25.005140489326845
lfingers nan
lthumb 2.2846443243702126 55.19634143160334
rclavicle -1.8655228997144724e-14 -1.108979124022667e-14
rhumerus -30.257901936144837 -18.215130491250697 -79.00467439179312
rradius 34.57561244740776
rwrist 2.744405950805046
rhand -19.064469288046663 -1.0
rfingers nan
rthumb 7.543098412677586 -5.6042147215133316
106
root 0.40484322659741395 17.74656157945455 52.96277125413865 -4.284100496085131 1.1749155081475635 -0.7688267963394217
lfemur -2.008642383203303 -4.559371902731608 -20.090284075103586
ltibia 11.558429111238556
lfoot -13.041024717093329 -5.161824140839114
ltoes -15.961046845072993
rfemur -29.946051132904895 -6.667178668384241 23.529845403252004
rtibia 67.5072382252703
rfoot -5.560247346311046 -11.101008732313144
rtoes -4.440923642131661
lowerback -1.0 -1.1470820918104687 -3.134829565464087
upperback 0.5942780920078132 -0.9396836858023894 1.7332490883431249
thorax -6.293760278384753 -0.3351771791576902 3.6274610323714187
lowerneck -17.281544465488526 -3.205671605504482 -3.1837009774166622
upperneck 20.75858423388495 -4.226226438111771 2.8504704385433945
head 9.401265008257576 -1.9329393366707859 0.8488791240390328
lclavicle -1.8246559972033097e-14 -1.4238167197419494e-14
lhumerus -27.60970111818633 2.6698787672679085 80.34604210746852
lradius 27.18389245051001
lwrist 9.034707717295145
lhand -25.967389516458105 24.154273183991336
lfingers nan
lthumb 0.5368513824231309 54.33847530043707
rclavicle -2.0328884325336574e-14 -1.5134543579945468e-14
rhumerus -30.296997942760314 -18.826497962655036 -78.75606572093025
rradius 33.746773206020116
rwrist 3.141523683563613
rhand -18.991995699885077 -1.0
rfingers nan
rthumb 7.612142889108154 -4.876397415893631
107
root 0.3581278643068383 17.745738724883577 53.084372220895276 -3.762783064269917 1.3023370007755886 -0.3174367805939804
lfemur 0.749659756295487 -4.252169874417863 -20.51885531026109
ltibia 8.877165429938017
lfoot -13.830710453095792 -5.362421580620936
ltoes -18.34962362769987
rfemur -30.010906448320426 -5.674088081405459 22.88559289041637
rtibia 55.29834213260769
rfoot -4.059873970870196 -11.475769075232309
rtoes -7.740155213534414
lowerback -1.0 -1.248172863598798 -3.5273639964431878
upperback 0.6188555335626096 -1.0734360781407584 1.766438078240266
thorax -6.079546637422213 -0.44852471791915194 3.9728619966974517
lowerneck -17.14642651703566 -3.030484511016707 -2.7768763729959334
upperneck 20.53908502150126 -3.8383552502562606 2.2699310407859357
head 9.275429658020443 -1.852863840281611 0.6411031464624772
lclavicle -1.3608204643487533e-14 1.0391538625559869e-14
lhumerus -25.48297223608113 1.1334648420341917 80.30048965566041
lradius 28.225168346249866
lwrist 9.314693316047556
lhand -27.298253766370426 20.704969045190786
lfingers nan
lthumb -0.7341958131145407 50.80145526603023
rclavicle -1.597202695014048e-14 9.596584222072242e-15
rhumerus -31.017489257608116 -19.26513286382018 -78.34027332320431
rradius 33.51023981991337
rwrist 3.732864500386604
rhand -18.68241203941269 -1.0
rfingers nan
rthumb 7.916934729055155 -5.500290806150329
108
root 0.3339176979417518 17.723094255624414 53.70842896531597 -3.254810019319787 1.543891960876771 0.20921645124936505
lfemur 4.221218601553379 -2.5087893637603957 -21.2159004140154
ltibia 4.510631087313737
lfoot -14.14587408262274 -5.485015537169634
ltoes -20.970391962352185
rfemur -28.843737698887736 -4.1844877016415385 21.450739818953508
rtibia 41.767853608460534
rfoot -3.235856629297553 -11.587655960566401
rtoes -10.218472065792849
lowerback -1.0 -1.385323071712208 -4.04290950255784
upperback 0.6055157686937687 -1.342882632732782 1.5912214863341823
thorax -5.334723393859715 -0.6122948993093763 4.187592756191528
lowerneck -16.684075479414094 -3.1498022855100407 -3.033000627899236
upperneck 20.480028160942915 -3.991439573858208 2.462308979671287
head 9.205228527791904 -1.9182877222156753 0.7372329354847225
lclavicle 1.0130085291369348e-14 -1.923557014200784e-14
lhumerus -24.199629491271146 0.34081043812056766 80.00002093970657
lradius 30.073759539488755
lwrist 10.662543573357619
lhand -26.30365381764379 24.654066450094124
lfingers nan
lthumb 0.18780565557869933 54.58552980907799
rclavicle 8.322293554202622e-15 -2.006965083110493e-14
rhumerus -31.936092892657374 -19.658703737859078 -77.82879781501175
rradius 32.52071990336957
rwrist 4.165573107512671
rhand -18.748009292642454 -1.0
rfingers nan
rthumb 7.862550896463595 -5.648836009045309
109
root 0.31452047745137585 17.709768996059154 53.03691343356579 -2.639590064833785 2.2122274740274803 0.3418304978750788
lfemur 7.4325584757370295 -2.7752693585003954 -21.93350002632633
ltibia 1.1968880442282774
lfoot -13.303119981745628 -5.375165995466051
ltoes -18.89860754146784
rfemur -27.688019978816854 -0.3980473510437621 19.220690688976603
rtibia 28.757469344504003
rfoot -5.769824012815018 -13.090847914258124
rtoes -9.982425006234116
lowerback -1.0 -1.8525907648274695 -4.422246310166807
upperback 0.3060320175716055 -1.914814892038127 1.5010006492491899
thorax -5.317273436439397 -0.8887400856227141 4.480851307550297
lowerneck -16.70577297825881 -2.6476097438382546 -2.4671721516844087
upperneck 20.538260536860044 -3.1768934029823592 2.0639694600974923
head 9.222254365779811 -1.6046004841459331 0.6046312611248531
lclavicle 7.657249817270715e-15 -1.0920495839980943e-14
lhumerus -23.05490012911438 -0.2455200048478381 79.60449040680815
lradius 30.66841666870503
lwrist 10.812088267981839
lhand -28.26704299316916 20.794393399998786
lfingers nan
lthumb -1.695442379217465 50.73486363473941
rclavicle 6.129802706068177e-15 -1.2076192535169752e-14
rhumerus -32.357580803039404 -19.959491313007874 -77.51092834714117
rradius 31.326685088610922
rwrist 5.192747224727344
rhand -19.174495656579932 -1.0
rfingers nan
rthumb 7.452053012433613 -5.651122587798899
110
root 0.2835566154608494 17.654209376765778 53.31682108688021 -2.5757947565928627 2.8166223785193703 0.24389302358919096
lfemur 10.46145920532891 -3.5851062311035293 -21.762234399332527
ltibia -0.16982552898133463
lfoot -12.918955481119841 -5.55125339156084
ltoes -20.792830976104145
rfemur -26.812673694506906 4.353184753156825 17.3016159851597
rtibia 22.341439889725457
rfoot -8.055360230004595 -14.22254268057475
rtoes -12.878492074175625
lowerback -1.0 -2.138560862545671 -4.455588744958781
upperback 0.08159000349946677 -2.2664828036801836 1.708037107221274
thorax -5.457462811027055 -1.0671912291329628 4.85434913861097
lowerneck -16.391610572073176 -2.5677004868363484 -2.4251925520166484
upperneck 20.59842969461915 -2.9417887092496766 1.7743712582178837
head 9.218831770846034 -1.5496240987601022 0.5368096948499288
lclavicle 3.517943707563421e-15 4.067377664406106e-15
lhumerus -22.33425879497939 -1.4112879998338523 79.5735552302581
lradius 30.847347685767414
lwrist 11.252006818420158
lhand -28.23267564664679 19.8930991429967
lfingers nan
lthumb -1.641106562016854 49.88044848415471
rclavicle 1.7502313597544278e-15 3.0603328179422568e-15
rhumerus -33.51661772708647 -20.76374379299214 -76.50908500231024
rradius 31.20138051278282
rwrist 7.536117775865289
rhand -19.216946000660425 -1.0
rfingers nan
rthumb 7.409310969915503 -6.243572526644732
111
root 0.23977229810712225 17.588388889888666 52.99160123944811 -2.853403114341536 2.297214643302803 -0.3382753417594677
lfemur 11.407188581524068 -4.399755940134378 -20.64990987465219
ltibia 3.8980415342869463
lfoot -13.958084528702571 -5.5585152807499245
ltoes -30.05084707294778
rfemur -27.36830343024922 0.021828230349713706 20.578263411660235
rtibia 25.342091535200815
rfoot -5.313315465131546 -8.150169024282418
rtoes -14.229674469341123
lowerback -1.0 -2.0312894010374674 -4.030949610564686
upperback 0.4634952025644152 -1.876136414660581 2.135606592563165
thorax -5.117685717158645 -0.9627299248661809 4.936512111069996
lowerneck -17.159208008057597 -3.1611164719098634 -2.745071923726666
upperneck 20.535108744974032 -3.9613629962701253 2.2204906113993204
head 9.283582367556503 -1.8797160618024376 0.6460635471697986
lclavicle 5.727579422237234e-15 -7.987216008497339e-15
lhumerus -20.6922516283987 -1.493773703477412 79.4959631030336
lradius 30.378285298223847
lwrist 11.002077056062667
lhand -29.74282620426746 18.487775319128296
lfingers nan
lthumb -3.08079800886865 48.486423318376694
rclavicle 4.1103426016687145e-15 -8.960129056628479e-15
rhumerus -33.534990326807154 -20.820666537016102 -76.6344307241939
rradius 30.716618259571995
rwrist 5.521131364381587
rhand -19.07707108662756 -1.0
rfingers nan
rthumb 7.543115371732056 -6.604161858024266
112
root 0.1850216058750721 17.56829834628377 53.41344858894157 -3.036093196843444 2.1264302324468556 -0.11142482782464924
lfemur 12.206010697056598 -5.323231765006138 -20.635068668775226
ltibia 7.24977691836472
lfoot -12.889600663216784 -6.117806128294797
ltoes -39.95217194825068
rfemur -27.712714434624857 -0.412578495640636 21.19840926208034
rtibia 31.474153371026556
rfoot -3.4165164876658274 -7.436001227380525
rtoes -16.717472304808602
lowerback -1.0 -1.9085234326740665 -4.381376328047303
upperback 0.07452755612721626 -1.768071687443588 2.004406009485021
thorax -5.629020211577092 -0.8783630183229918 4.960759029092208
lowerneck -16.557703602015707 -3.0330561618736076 -2.7185276935896843
upperneck 20.587927161625903 -3.7387111809202986 2.215737595082789
head 9.236485112732865 -1.812791903009109 0.6734469349074879
lclavicle 1.4061785704072596e-14 -2.6598370992895545e-14
lhumerus -21.736995716441115 0.017604119977041144 79.56587942082503
lradius 31.364620484502375
lwrist 9.507508061121593
lhand -29.400160545004656 18.774660060034016
lfingers nan
lthumb -2.740512065344249 48.83411589713753
rclavicle 1.2590255853701961e-14 -2.829259981096315e-14
rhumerus -34.871629456049426 -22.28793614633967 -75.38928973341332
rradius 29.118966232812642
rwrist 7.406181283854025
rhand -19.50433467974651 -1.0
rfingers nan
rthumb 7.121413511983955 -5.5512028638576645
